<svg xmlns="http://www.w3.org/2000/svg" viewBox="0 0 64 64"><defs><style>.cls-1{fill:none;}</style></defs><g id="Camada_2" data-name="Camada 2"><g id="Camada_1-2" data-name="Camada 1"><path d="M49.31,36.75a1,1,0,0,1-.41-.09,1,1,0,0,1-.49-1.33,12,12,0,0,0,.17-9.4,9.31,9.31,0,0,0-8.89-5.64h0a1,1,0,0,1,0-2,11.36,11.36,0,0,1,10.8,6.85,14,14,0,0,1-.2,11A1,1,0,0,1,49.31,36.75Z"/><rect class="cls-1" width="64" height="64"/><path d="M47.91,48H14.72a2.53,2.53,0,0,1-2.27-3.79L28.83,15.76A2.52,2.52,0,0,1,31,14.49a2.62,2.62,0,0,1,2.19,1.24l17,28.45A2.51,2.51,0,0,1,50,47,2.62,2.62,0,0,1,47.91,48ZM31,16.49h0a.51.51,0,0,0-.45.27L14.18,45.21h0a.56.56,0,0,0,0,.53.54.54,0,0,0,.46.26H48a.52.52,0,0,0,.46-.27.54.54,0,0,0,0-.53l-17-28.45A.53.53,0,0,0,31,16.49ZM13.32,44.71h0Z"/><path d="M15.18,20.8a1,1,0,0,0,1.41-.07,1,1,0,0,0-.07-1.41l-6.3-5.7A1,1,0,1,0,8.88,15.1Z"/><path d="M38,38.78a1,1,0,0,0-1.34,1.48L43,46a1,1,0,0,0,.67.26,1,1,0,0,0,.67-1.74Z"/><path d="M24.45,29.19a1,1,0,0,0,.67.26,1,1,0,0,0,.74-.33,1,1,0,0,0-.07-1.41L19.49,22a1,1,0,0,0-1.34,1.49Z"/><path d="M47.3,47.16A1,1,0,0,0,46,48.65l6.3,5.7a1,1,0,0,0,.67.26,1,1,0,0,0,.67-1.74Z"/><path d="M46.77,21.11a1,1,0,0,0,.67-.26l6.32-5.68a1,1,0,0,0,.07-1.42,1,1,0,0,0-1.41-.07L46.1,19.37a1,1,0,0,0,.67,1.74Z"/><path d="M15.25,47.12,8.93,52.8a1,1,0,0,0,.67,1.74,1,1,0,0,0,.67-.25l6.31-5.69a1,1,0,1,0-1.33-1.48Z"/><path d="M43.13,22l-6.32,5.68a1,1,0,0,0,.67,1.75,1,1,0,0,0,.67-.26l6.32-5.68a1,1,0,0,0,.07-1.42A1,1,0,0,0,43.13,22Z"/><path d="M24.54,38.76l-6.32,5.68a1,1,0,0,0,.67,1.75,1,1,0,0,0,.67-.26l6.32-5.68A1,1,0,0,0,26,38.83,1,1,0,0,0,24.54,38.76Z"/><path d="M35.25,30.47a1,1,0,0,0-1.42-.07l-2.54,2.28-2.53-2.29a1,1,0,1,0-1.34,1.48L29.8,34l-2.29,2a1,1,0,0,0-.07,1.42,1,1,0,0,0,.74.33,1,1,0,0,0,.67-.26l2.44-2.19,2.43,2.2a1,1,0,0,0,1.41-.07,1,1,0,0,0-.07-1.42L32.78,34l2.39-2.14A1,1,0,0,0,35.25,30.47Z"/></g></g></svg>